{
	"asset":{
		"generator":"Khronos glTF Blender I/O v4.1.63",
		"version":"2.0"
	},
	"extensionsUsed":[
		"KHR_materials_transmission"
	],
	"scene":0,
	"scenes":[
		{
			"name":"Scene",
			"nodes":[
				0
			]
		}
	],
	"nodes":[
		{
			"mesh":0,
			"name":"earring.001",
			"rotation":[
				-0.7745007872581482,
				0.2022598832845688,
				-0.558504581451416,
				0.21751344203948975
			],
			"scale":[
				0.00023406551918014884,
				0.00023406559193972498,
				0.00023406556283589453
			],
			"translation":[
				0.12102331966161728,
				-0.3526879549026489,
				0.0347561314702034
			]
		}
	],
	"animations":[
		{
			"channels":[
				{
					"sampler":0,
					"target":{
						"node":0,
						"path":"translation"
					}
				},
				{
					"sampler":1,
					"target":{
						"node":0,
						"path":"rotation"
					}
				},
				{
					"sampler":2,
					"target":{
						"node":0,
						"path":"scale"
					}
				}
			],
			"name":"earring.001Action",
			"samplers":[
				{
					"input":3,
					"interpolation":"STEP",
					"output":4
				},
				{
					"input":5,
					"interpolation":"LINEAR",
					"output":6
				},
				{
					"input":5,
					"interpolation":"LINEAR",
					"output":7
				}
			]
		}
	],
	"materials":[
		{
			"doubleSided":true,
			"extensions":{
				"KHR_materials_transmission":{
					"transmissionFactor":1
				}
			},
			"name":"Glass.001",
			"pbrMetallicRoughness":{
				"baseColorFactor":[
					0.800000011920929,
					0.800000011920929,
					0.800000011920929,
					1
				],
				"metallicFactor":0,
				"roughnessFactor":0
			}
		}
	],
	"meshes":[
		{
			"name":"TorusKnot.002",
			"primitives":[
				{
					"attributes":{
						"POSITION":0,
						"NORMAL":1
					},
					"indices":2,
					"material":0
				}
			]
		}
	],
	"accessors":[
		{
			"bufferView":0,
			"componentType":5126,
			"count":10240,
			"max":[
				2.6692938804626465,
				3.5695090293884277,
				3.0280630588531494
			],
			"min":[
				-2.934333324432373,
				-3.23854660987854,
				-3.2406537532806396
			],
			"type":"VEC3"
		},
		{
			"bufferView":1,
			"componentType":5126,
			"count":10240,
			"type":"VEC3"
		},
		{
			"bufferView":2,
			"componentType":5123,
			"count":61440,
			"type":"SCALAR"
		},
		{
			"bufferView":3,
			"componentType":5126,
			"count":2,
			"max":[
				5.833333333333333
			],
			"min":[
				0.041666666666666664
			],
			"type":"SCALAR"
		},
		{
			"bufferView":4,
			"componentType":5126,
			"count":2,
			"type":"VEC3"
		},
		{
			"bufferView":5,
			"componentType":5126,
			"count":140,
			"max":[
				5.833333333333333
			],
			"min":[
				0.041666666666666664
			],
			"type":"SCALAR"
		},
		{
			"bufferView":6,
			"componentType":5126,
			"count":140,
			"type":"VEC4"
		},
		{
			"bufferView":7,
			"componentType":5126,
			"count":140,
			"type":"VEC3"
		}
	],
	"bufferViews":[
		{
			"buffer":0,
			"byteLength":122880,
			"byteOffset":0,
			"target":34962
		},
		{
			"buffer":0,
			"byteLength":122880,
			"byteOffset":122880,
			"target":34962
		},
		{
			"buffer":0,
			"byteLength":122880,
			"byteOffset":245760,
			"target":34963
		},
		{
			"buffer":0,
			"byteLength":8,
			"byteOffset":368640
		},
		{
			"buffer":0,
			"byteLength":24,
			"byteOffset":368648
		},
		{
			"buffer":0,
			"byteLength":560,
			"byteOffset":368672
		},
		{
			"buffer":0,
			"byteLength":2240,
			"byteOffset":369232
		},
		{
			"buffer":0,
			"byteLength":1680,
			"byteOffset":371472
		}
	],
	"buffers":[
		{
			"byteLength":373152,
			"uri":"chloma.bin"
		}
	]
}
