{
	"asset":{
		"generator":"Khronos glTF Blender I/O v4.1.63",
		"version":"2.0"
	},
	"extensionsUsed":[
		"KHR_materials_transmission"
	],
	"scene":0,
	"scenes":[
		{
			"name":"Scene",
			"nodes":[
				0
			]
		}
	],
	"nodes":[
		{
			"mesh":0,
			"name":"earring.001",
			"rotation":[
				1,
				0,
				0,
				0
			],
			"scale":[
				0.10000000149011612,
				0.10000000149011612,
				0.10000000149011612
			]
		}
	],
	"materials":[
		{
			"doubleSided":true,
			"extensions":{
				"KHR_materials_transmission":{
					"transmissionFactor":1
				}
			},
			"name":"Glass.001",
			"pbrMetallicRoughness":{
				"baseColorFactor":[
					0.800000011920929,
					0.800000011920929,
					0.800000011920929,
					1
				],
				"metallicFactor":0,
				"roughnessFactor":0
			}
		}
	],
	"meshes":[
		{
			"name":"TorusKnot.002",
			"primitives":[
				{
					"attributes":{
						"POSITION":0,
						"NORMAL":1
					},
					"indices":2,
					"material":0
				}
			]
		}
	],
	"accessors":[
		{
			"bufferView":0,
			"componentType":5126,
			"count":10240,
			"max":[
				2.6692938804626465,
				3.5695090293884277,
				3.0280630588531494
			],
			"min":[
				-2.934333324432373,
				-3.23854660987854,
				-3.2406537532806396
			],
			"type":"VEC3"
		},
		{
			"bufferView":1,
			"componentType":5126,
			"count":10240,
			"type":"VEC3"
		},
		{
			"bufferView":2,
			"componentType":5123,
			"count":61440,
			"type":"SCALAR"
		}
	],
	"bufferViews":[
		{
			"buffer":0,
			"byteLength":122880,
			"byteOffset":0,
			"target":34962
		},
		{
			"buffer":0,
			"byteLength":122880,
			"byteOffset":122880,
			"target":34962
		},
		{
			"buffer":0,
			"byteLength":122880,
			"byteOffset":245760,
			"target":34963
		}
	],
	"buffers":[
		{
			"byteLength":368640,
			"uri":"new2.bin"
		}
	]
}
