{
	"asset":{
		"generator":"Khronos glTF Blender I/O v4.1.63",
		"version":"2.0"
	},
	"extensionsUsed":[
		"KHR_materials_transmission"
	],
	"scene":0,
	"scenes":[
		{
			"name":"Scene",
			"nodes":[
				0,
				1,
				2
			]
		}
	],
	"nodes":[
		{
			"mesh":0,
			"name":"TorusKnot",
			"rotation":[
				-0.0014955955557525158,
				0.7231309413909912,
				0.5945661067962646,
				0.35152608156204224
			],
			"scale":[
				0.00792387779802084,
				0.007923879660665989,
				0.007923878729343414
			],
			"translation":[
				0.12102331966161728,
				-0.3526879549026489,
				0.0347561314702034
			]
		},
		{
			"mesh":1,
			"name":"earring",
			"rotation":[
				-0.35379108786582947,
				-0.5861639380455017,
				-0.13337968289852142,
				0.7165568470954895
			],
			"scale":[
				0.1127789318561554,
				0.1127789095044136,
				0.1127789244055748
			],
			"translation":[
				0,
				-0.23819494247436523,
				0
			]
		},
		{
			"mesh":2,
			"name":"earring.001",
			"rotation":[
				-0.6491566300392151,
				0.031280022114515305,
				0.758891224861145,
				0.04124823212623596
			],
			"scale":[
				0.11797116696834564,
				0.11797118932008743,
				0.11797118186950684
			],
			"translation":[
				0.12102331966161728,
				-0.3526879549026489,
				0.0347561314702034
			]
		}
	],
	"materials":[
		{
			"doubleSided":true,
			"extensions":{
				"KHR_materials_transmission":{
					"transmissionFactor":1
				}
			},
			"name":"Glass",
			"pbrMetallicRoughness":{
				"baseColorFactor":[
					0.800000011920929,
					0.800000011920929,
					0.800000011920929,
					1
				],
				"metallicFactor":0,
				"roughnessFactor":0
			}
		},
		{
			"doubleSided":true,
			"extensions":{
				"KHR_materials_transmission":{
					"transmissionFactor":1
				}
			},
			"name":"Glass.001",
			"pbrMetallicRoughness":{
				"baseColorFactor":[
					0.800000011920929,
					0.800000011920929,
					0.800000011920929,
					1
				],
				"metallicFactor":0,
				"roughnessFactor":0
			}
		}
	],
	"meshes":[
		{
			"name":"TorusKnot",
			"primitives":[
				{
					"attributes":{
						"POSITION":0,
						"NORMAL":1
					},
					"indices":2,
					"material":0
				}
			]
		},
		{
			"name":"TorusKnot.001",
			"primitives":[
				{
					"attributes":{
						"POSITION":3,
						"NORMAL":4,
						"TEXCOORD_0":5
					},
					"indices":6,
					"material":0
				}
			]
		},
		{
			"name":"TorusKnot.002",
			"primitives":[
				{
					"attributes":{
						"POSITION":7,
						"NORMAL":8
					},
					"indices":2,
					"material":1
				}
			]
		}
	],
	"accessors":[
		{
			"bufferView":0,
			"componentType":5126,
			"count":10240,
			"max":[
				2.6692938804626465,
				3.5695090293884277,
				3.0280630588531494
			],
			"min":[
				-2.934333324432373,
				-3.23854660987854,
				-3.2406537532806396
			],
			"type":"VEC3"
		},
		{
			"bufferView":1,
			"componentType":5126,
			"count":10240,
			"type":"VEC3"
		},
		{
			"bufferView":2,
			"componentType":5123,
			"count":61440,
			"type":"SCALAR"
		},
		{
			"bufferView":3,
			"componentType":5126,
			"count":223184,
			"max":[
				2.620157241821289,
				7.0373735427856445,
				6.55017614364624
			],
			"min":[
				-2.8622710704803467,
				-2.245015859603882,
				-2.8419392108917236
			],
			"type":"VEC3"
		},
		{
			"bufferView":4,
			"componentType":5126,
			"count":223184,
			"type":"VEC3"
		},
		{
			"bufferView":5,
			"componentType":5126,
			"count":223184,
			"type":"VEC2"
		},
		{
			"bufferView":6,
			"componentType":5125,
			"count":1339140,
			"type":"SCALAR"
		},
		{
			"bufferView":7,
			"componentType":5126,
			"count":10240,
			"max":[
				2.6692938804626465,
				3.5695090293884277,
				3.0280630588531494
			],
			"min":[
				-2.934333324432373,
				-3.23854660987854,
				-3.2406537532806396
			],
			"type":"VEC3"
		},
		{
			"bufferView":8,
			"componentType":5126,
			"count":10240,
			"type":"VEC3"
		}
	],
	"bufferViews":[
		{
			"buffer":0,
			"byteLength":122880,
			"byteOffset":0,
			"target":34962
		},
		{
			"buffer":0,
			"byteLength":122880,
			"byteOffset":122880,
			"target":34962
		},
		{
			"buffer":0,
			"byteLength":122880,
			"byteOffset":245760,
			"target":34963
		},
		{
			"buffer":0,
			"byteLength":2678208,
			"byteOffset":368640,
			"target":34962
		},
		{
			"buffer":0,
			"byteLength":2678208,
			"byteOffset":3046848,
			"target":34962
		},
		{
			"buffer":0,
			"byteLength":1785472,
			"byteOffset":5725056,
			"target":34962
		},
		{
			"buffer":0,
			"byteLength":5356560,
			"byteOffset":7510528,
			"target":34963
		},
		{
			"buffer":0,
			"byteLength":122880,
			"byteOffset":12867088,
			"target":34962
		},
		{
			"buffer":0,
			"byteLength":122880,
			"byteOffset":12989968,
			"target":34962
		}
	],
	"buffers":[
		{
			"byteLength":13112848,
			"uri":"earring.bin"
		}
	]
}
